<svg fill="none" xmlns="http://www.w3.org/2000/svg" viewBox="0 0 253 40"><path d="M8.08 11.352v8.808h11.664v5.64H8.08V39H.184V5.736h21.864l-.816 5.616H8.08ZM27.381 39v-5.088h3.36v-15.36h-3.36v-5.04h9.144l1.392 5.736c.912-2.192 2.072-3.824 3.48-4.896 1.424-1.072 3.16-1.608 5.208-1.608.864 0 1.632.072 2.304.216.672.128 1.304.312 1.896.552l-2.304 6.264a10.758 10.758 0 0 0-1.392-.288 11.291 11.291 0 0 0-1.536-.096c-1.664 0-3.128.68-4.392 2.04-1.248 1.36-2.2 3.088-2.856 5.184v7.296h5.04V39H27.381Zm17.256-14.832v-7.44l1.128-3.216h5.04L49.39 24.168h-4.752ZM77.379 31.656c0 .96.127 1.656.383 2.088.272.432.704.76 1.296.984l-1.56 4.992c-1.504-.144-2.776-.472-3.816-.984-1.023-.528-1.832-1.32-2.424-2.376-.975 1.168-2.224 2.04-3.743 2.616-1.52.56-3.073.84-4.657.84-2.623 0-4.72-.744-6.287-2.232-1.552-1.504-2.328-3.432-2.328-5.784 0-2.768 1.08-4.904 3.24-6.408 2.175-1.504 5.232-2.256 9.167-2.256h3.432v-.96c0-1.328-.431-2.312-1.295-2.952-.849-.64-2.097-.96-3.745-.96-.816 0-1.864.12-3.144.36-1.28.224-2.56.552-3.84.984l-1.752-5.04a28.986 28.986 0 0 1 5.137-1.416c1.791-.32 3.392-.48 4.8-.48 3.791 0 6.592.776 8.4 2.328 1.823 1.536 2.736 3.76 2.736 6.672v9.984Zm-11.904 2.736c.816 0 1.672-.24 2.568-.72a4.937 4.937 0 0 0 2.04-2.088v-4.128H68.21c-2.111 0-3.663.328-4.655.984-.992.64-1.489 1.584-1.489 2.832 0 .976.296 1.744.889 2.304.608.544 1.448.816 2.52.816ZM84.704 39V13.512h6.624l.528 2.952c1.136-1.28 2.336-2.232 3.6-2.856 1.264-.624 2.704-.936 4.32-.936 2.176 0 3.888.664 5.136 1.992 1.248 1.328 1.872 3.2 1.872 5.616V39H99.2V22.464c0-1.04-.072-1.864-.216-2.472-.144-.624-.4-1.064-.768-1.32-.352-.272-.84-.408-1.464-.408-.528 0-1.048.12-1.56.36a5.736 5.736 0 0 0-1.464.984c-.48.432-.96.952-1.44 1.56V39h-7.584ZM126.997 33.84c1.04 0 2.016-.2 2.928-.6a16.72 16.72 0 0 0 2.76-1.584l3.384 4.8c-1.12.96-2.488 1.76-4.104 2.4-1.6.64-3.392.96-5.376.96-2.736 0-5.088-.56-7.056-1.68a11.566 11.566 0 0 1-4.536-4.704c-1.056-2.016-1.584-4.352-1.584-7.008 0-2.656.536-5.016 1.608-7.08 1.088-2.08 2.624-3.712 4.608-4.896 2-1.184 4.368-1.776 7.104-1.776 1.936 0 3.656.272 5.16.816 1.52.528 2.912 1.32 4.176 2.376l-3.288 4.56a11.126 11.126 0 0 0-2.736-1.416 9.016 9.016 0 0 0-3-.504c-1.712 0-3.096.608-4.152 1.824-1.04 1.2-1.56 3.232-1.56 6.096 0 1.872.248 3.352.744 4.44.496 1.072 1.168 1.84 2.016 2.304.864.448 1.832.672 2.904.672ZM157.842 13.512v20.304h6.48V39h-21.288v-5.184h7.224v-15.12h-6.984v-5.184h14.568ZM153.258.168c1.312 0 2.384.408 3.216 1.224.832.816 1.248 1.832 1.248 3.048s-.416 2.24-1.248 3.072c-.832.816-1.904 1.224-3.216 1.224-1.328 0-2.416-.408-3.264-1.224-.832-.832-1.248-1.856-1.248-3.072s.416-2.232 1.248-3.048c.848-.816 1.936-1.224 3.264-1.224ZM181.271 34.392c1.264 0 2.28-.2 3.048-.6.784-.4 1.176-1 1.176-1.8 0-.544-.152-1-.456-1.368-.304-.368-.888-.72-1.752-1.056-.864-.336-2.144-.736-3.84-1.2-1.552-.416-2.928-.944-4.128-1.584-1.184-.64-2.112-1.464-2.784-2.472-.656-1.008-.984-2.264-.984-3.768 0-1.52.424-2.872 1.272-4.056.848-1.184 2.096-2.112 3.744-2.784 1.648-.688 3.664-1.032 6.048-1.032 2.272 0 4.248.296 5.928.888 1.696.576 3.16 1.312 4.392 2.208l-3.024 4.464a14.975 14.975 0 0 0-3.408-1.56c-1.216-.4-2.44-.6-3.672-.6-1.232 0-2.152.168-2.76.504-.592.32-.888.808-.888 1.464 0 .432.152.808.456 1.128.32.304.912.624 1.776.96.864.32 2.128.72 3.792 1.2 1.648.464 3.08 1 4.296 1.608 1.232.608 2.184 1.424 2.856 2.448.672 1.008 1.008 2.344 1.008 4.008 0 1.856-.552 3.416-1.656 4.68-1.104 1.248-2.568 2.184-4.392 2.808-1.824.624-3.824.936-6 .936-2.464 0-4.64-.352-6.528-1.056-1.888-.704-3.496-1.632-4.824-2.784l3.816-4.272a14.353 14.353 0 0 0 3.36 1.92c1.264.512 2.64.768 4.128.768ZM224.021 13.512l-8.376 11.28L224.717 39h-8.64l-8.376-13.968 8.376-11.52h7.944Zm-16.608-10.92V39h-7.584V3.384l7.584-.792ZM239.65 12.672c2.624 0 4.856.56 6.696 1.68 1.84 1.12 3.248 2.696 4.224 4.728.976 2.016 1.464 4.384 1.464 7.104 0 2.832-.496 5.272-1.488 7.32-.976 2.032-2.384 3.592-4.224 4.68-1.84 1.088-4.064 1.632-6.672 1.632-2.592 0-4.816-.536-6.672-1.608-1.84-1.072-3.256-2.624-4.248-4.656-.976-2.032-1.464-4.472-1.464-7.32 0-2.704.488-5.072 1.464-7.104.992-2.032 2.408-3.616 4.248-4.752 1.856-1.136 4.08-1.704 6.672-1.704Zm0 5.592c-1.552 0-2.704.64-3.456 1.92-.736 1.264-1.104 3.28-1.104 6.048 0 2.816.368 4.856 1.104 6.12.752 1.264 1.904 1.896 3.456 1.896s2.696-.632 3.432-1.896c.752-1.264 1.128-3.32 1.128-6.168 0-2.752-.376-4.76-1.128-6.024-.736-1.264-1.88-1.896-3.432-1.896Z" fill="#4E2009"/></svg>